<!DOCTYPE svg>
<svg width="1280" height="720" viewBox="0 0 1280 720" xmlns="http://www.w3.org/2000/svg">
  <defs>
    <linearGradient id="sky-gradient-1" x1="0%" y1="0%" x2="100%" y2="100%">
      <stop offset="0%" stop-color="#FB923C" />
      <stop offset="60%" stop-color="#F97316" />
      <stop offset="100%" stop-color="#38BDF8" />
    </linearGradient>
    <filter id="haze-1">
      <feTurbulence type="fractalNoise" baseFrequency="0.55" numOctaves="4" />
      <feColorMatrix type="matrix" values="0 0 0 0 0 0 0 0 0 0 0 0 0 0 0 0 0 0 0.3 0" />
      <feComponentTransfer>
        <feFuncA type="linear" slope="0.4" />
      </feComponentTransfer>
      <feGaussianBlur stdDeviation="6" />
    </filter>
  </defs>
  <rect width="1280" height="720" fill="#FB923C" />
  <rect width="1280" height="720" fill="url(#sky-gradient-1)" opacity="0.88" />
  <rect width="1280" height="720" filter="url(#haze-1)" opacity="0.4" />
  <g opacity="0.16" stroke="rgba(255,255,255,0.18)" stroke-width="1.2" fill="none">
    <path d="M0 475.20000000000005 Q 358.40000000000003 374.40000000000003, 704 489.6 T 1280 388.8" />
    <path d="M0 590.4 Q 281.6 532.8, 640 619.2 T 1280 561.6" />
  </g>
  <g>
    <path d="M 0 720 L 0 302.40000000000003 L 80 276.40000000000003 L 160 302.40000000000003 L 160 238.1671934105464 L 240 212.1671934105464 L 320 238.1671934105464 L 320 222.54449426798803 L 400 196.54449426798803 L 480 222.54449426798803 L 480 267.35484982082596 L 560 241.35484982082596 L 640 267.35484982082596 L 640 338.68667635017795 L 720 312.68667635017795 L 800 338.68667635017795 L 800 382.557469648538 L 880 356.557469648538 L 960 382.557469648538 L 960 365.766687979591 L 1040 339.766687979591 L 1120 365.766687979591 L 1120 301.02126016028336 L 1200 275.02126016028336 L 1280 301.02126016028336 L 1280 237.31923516436947 L 1360 211.31923516436947 L 1440 237.31923516436947 L 1280 720" fill="#F97316" fill-opacity="0.4" />
    <path d="M 0 720 L 0 287.93527531501354 L 58.18181818181818 255.93527531501354 L 116.36363636363636 287.93527531501354 L 116.36363636363636 328.3738888626966 L 174.54545454545453 296.3738888626966 L 232.72727272727272 328.3738888626966 L 232.72727272727272 392.7465128038191 L 290.9090909090909 360.7465128038191 L 349.09090909090907 392.7465128038191 L 349.09090909090907 432.33722870721715 L 407.27272727272725 400.33722870721715 L 465.45454545454544 432.33722870721715 L 465.45454545454544 417.18457207914304 L 523.6363636363636 385.18457207914304 L 581.8181818181818 417.18457207914304 L 581.8181818181818 358.75577136415814 L 639.9999999999999 326.75577136415814 L 698.1818181818181 358.75577136415814 L 698.1818181818181 301.2685780751627 L 756.3636363636363 269.2685780751627 L 814.5454545454545 301.2685780751627 L 814.5454545454545 288.2281539974636 L 872.7272727272726 256.2281539974636 L 930.9090909090909 288.2281539974636 L 930.9090909090909 329.50323209211 L 989.090909090909 297.50323209211 L 1047.2727272727273 329.50323209211 L 1047.2727272727273 393.8576561393738 L 1105.4545454545455 361.8576561393738 L 1163.6363636363635 393.8576561393738 L 1163.6363636363635 432.5892810249204 L 1221.8181818181818 400.5892810249204 L 1279.9999999999998 432.5892810249204 L 1280 416.3867852100084 L 1338.1818181818182 384.3867852100084 L 1396.3636363636363 416.3867852100084 L 1280 720" fill="#38BDF8" fill-opacity="0.48" />
    <path d="M 0 720 L 0 446.8063492574603 L 45.714285714285715 408.8063492574603 L 91.42857142857143 446.8063492574603 L 91.42857142857143 482.1169877658964 L 137.14285714285714 444.1169877658964 L 182.85714285714286 482.1169877658964 L 182.85714285714286 468.6024561786952 L 228.57142857142858 430.6024561786952 L 274.2857142857143 468.6024561786952 L 274.2857142857143 416.49028256803297 L 320 378.49028256803297 L 365.7142857142857 416.49028256803297 L 365.7142857142857 365.2179209859559 L 411.42857142857144 327.2179209859559 L 457.14285714285717 365.2179209859559 L 457.14285714285717 353.58727248422434 L 502.8571428571429 315.58727248422434 L 548.5714285714286 353.58727248422434 L 548.5714285714286 390.4001799740441 L 594.2857142857142 352.4001799740441 L 640 390.4001799740441 L 640 447.7973689891712 L 685.7142857142857 409.7973689891712 L 731.4285714285714 447.7973689891712 L 731.4285714285714 482.34179118438846 L 777.1428571428571 444.34179118438846 L 822.8571428571429 482.34179118438846 L 822.8571428571429 467.89091653865614 L 868.5714285714286 429.89091653865614 L 914.2857142857143 467.89091653865614 L 914.2857142857143 415.380878883405 L 960 377.380878883405 L 1005.7142857142858 415.380878883405 L 1005.7142857142858 364.550227847593 L 1051.4285714285716 326.550227847593 L 1097.142857142857 364.550227847593 L 1097.142857142857 353.8665867477477 L 1142.857142857143 315.8665867477477 L 1188.5714285714284 353.8665867477477 L 1188.5714285714287 391.41512217337964 L 1234.2857142857144 353.41512217337964 L 1280 391.41512217337964 L 1280 448.7798511022988 L 1325.7142857142858 410.7798511022988 L 1371.4285714285713 448.7798511022988 L 1280 720" fill="#F97316" fill-opacity="0.56" />
    <path d="M 0 720 L 0 520.0203402782473 L 37.64705882352941 476.0203402782473 L 75.29411764705883 520.0203402782473 L 75.29411764705883 474.22479377190774 L 112.94117647058823 430.22479377190774 L 150.58823529411765 474.22479377190774 L 150.58823529411765 429.16726389674915 L 188.23529411764707 385.16726389674915 L 225.88235294117646 429.16726389674915 L 225.88235294117646 418.946390970985 L 263.52941176470586 374.946390970985 L 301.1764705882353 418.946390970985 L 301.1764705882353 451.29712785597815 L 338.8235294117647 407.29712785597815 L 376.47058823529414 451.29712785597815 L 376.47058823529414 501.73708183896866 L 414.11764705882354 457.73708183896866 L 451.764705882353 501.73708183896866 L 451.7647058823529 532.0943013438566 L 489.4117647058823 488.0943013438566 L 527.0588235294117 532.0943013438566 L 527.0588235294118 519.3950478673039 L 564.7058823529412 475.3950478673039 L 602.3529411764706 519.3950478673039 L 602.3529411764706 473.24986326117414 L 640 429.24986326117414 L 677.6470588235294 473.24986326117414 L 677.6470588235294 428.580503260006 L 715.2941176470588 384.580503260006 L 752.9411764705882 428.580503260006 L 752.9411764705883 419.19184896014195 L 790.5882352941177 375.19184896014195 L 828.2352941176471 419.19184896014195 L 828.2352941176471 452.1890467584245 L 865.8823529411765 408.1890467584245 L 903.5294117647059 452.1890467584245 L 903.5294117647059 502.6004752111111 L 941.1764705882352 458.6004752111111 L 978.8235294117646 502.6004752111111 L 978.8235294117648 532.2757702947354 L 1016.4705882352941 488.27577029473537 L 1054.1176470588236 532.2757702947354 L 1054.1176470588236 518.7572603127572 L 1091.7647058823532 474.75726031275724 L 1129.4117647058824 518.7572603127572 L 1129.4117647058824 472.27548410720476 L 1167.058823529412 428.27548410720476 L 1204.7058823529412 472.27548410720476 L 1204.7058823529412 428.0069232245879 L 1242.3529411764707 384.0069232245879 L 1280 428.0069232245879 L 1280 419.4531419788773 L 1317.6470588235295 375.4531419788773 L 1355.2941176470588 419.4531419788773 L 1280 720" fill="#38BDF8" fill-opacity="0.64" />
    <path d="M 0 720 L 0 493.1166068075423 L 32 443.1166068075423 L 64 493.1166068075423 L 64 484.30550945774564 L 96 434.30550945774564 L 128 484.30550945774564 L 128 512.1940757379122 L 160 462.19407573791216 L 192 512.1940757379122 L 192 555.676794688766 L 224 505.676794688766 L 256 555.676794688766 L 256 581.8468115033245 L 288 531.8468115033245 L 320 581.8468115033245 L 320 570.8991791959515 L 352 520.8991791959515 L 384 570.8991791959515 L 384 531.1188476389431 L 416 481.11884763894307 L 448 531.1188476389431 L 448 492.6107786724189 L 480 442.6107786724189 L 512 492.6107786724189 L 512 484.5171111725361 L 544 434.5171111725361 L 576 484.5171111725361 L 576 512.9629713434693 L 608 462.96297134346935 L 640 512.9629713434693 L 640 556.4210993199233 L 672 506.4210993199233 L 704 556.4210993199233 L 704 582.0032502540821 L 736 532.0032502540821 L 768 582.0032502540821 L 768 570.3493623385838 L 800 520.3493623385838 L 832 570.3493623385838 L 832 530.2788656096592 L 864 480.2788656096592 L 896 530.2788656096592 L 896 492.1163131246447 L 928 442.1163131246447 L 960 492.1163131246447 L 960 484.7423637748941 L 992 434.7423637748941 L 1024 484.7423637748941 L 1024 513.737475417253 L 1056 463.737475417253 L 1088 513.737475417253 L 1088 557.1587256230255 L 1120 507.1587256230255 L 1152 557.1587256230255 L 1152 582.1457779060324 L 1184 532.1457779060324 L 1216 582.1457779060324 L 1216 569.7889292538946 L 1248 519.7889292538946 L 1280 569.7889292538946 L 1280 529.4395963737262 L 1312 479.4395963737262 L 1344 529.4395963737262 L 1280 720" fill="#F97316" fill-opacity="0.72" />
    <path d="M 0 720 L 0 573.0910236198463 L 27.82608695652174 517.0910236198463 L 55.65217391304348 573.0910236198463 L 55.65217391304348 609.6165075385636 L 83.47826086956522 553.6165075385636 L 111.30434782608695 609.6165075385636 L 111.30434782608695 631.5993216627927 L 139.1304347826087 575.5993216627927 L 166.95652173913044 631.5993216627927 L 166.95652173913044 622.4033105245994 L 194.7826086956522 566.4033105245994 L 222.6086956521739 622.4033105245994 L 222.6086956521739 588.9878320167123 L 250.43478260869566 532.9878320167123 L 278.2608695652174 588.9878320167123 L 278.2608695652174 556.641054084832 L 306.0869565217391 500.64105408483204 L 333.9130434782609 556.641054084832 L 333.9130434782609 549.8423733849304 L 361.7391304347826 493.8423733849304 L 389.5652173913044 549.8423733849304 L 389.5652173913043 573.7368959285144 L 417.39130434782606 517.7368959285144 L 445.2173913043478 573.7368959285144 L 445.2173913043478 610.2417234287357 L 473.04347826086956 554.2417234287357 L 500.8695652173913 610.2417234287357 L 500.8695652173913 631.7307302134291 L 528.695652173913 575.7307302134291 L 556.5217391304348 631.7307302134291 L 556.5217391304348 621.9414643644105 L 584.3478260869565 565.9414643644105 L 612.1739130434783 621.9414643644105 L 612.1739130434783 588.2822471121139 L 640 532.2822471121139 L 667.8260869565217 588.2822471121139 L 667.8260869565217 556.2257030247017 L 695.6521739130435 500.2257030247017 L 723.4782608695652 556.2257030247017 L 723.4782608695652 550.0315855709111 L 751.304347826087 494.03158557091115 L 779.1304347826087 550.0315855709111 L 779.1304347826086 574.3874793504926 L 806.9565217391304 518.3874793504926 L 834.7826086956521 574.3874793504926 L 834.7826086956521 610.8613295233415 L 862.6086956521739 554.8613295233415 L 890.4347826086956 610.8613295233415 L 890.4347826086956 631.8504534410673 L 918.2608695652174 575.8504534410673 L 946.0869565217391 631.8504534410673 L 946.0869565217391 621.4707005732716 L 973.9130434782609 565.4707005732716 L 1001.7391304347826 621.4707005732716 L 1001.7391304347826 587.5772609539301 L 1029.5652173913043 531.5772609539301 L 1057.391304347826 587.5772609539301 L 1057.391304347826 555.8200139690007 L 1085.2173913043478 499.8200139690007 L 1113.0434782608695 555.8200139690007 L 1113.0434782608695 550.232211007011 L 1140.8695652173913 494.23221100701096 L 1168.695652173913 550.232211007011 L 1168.695652173913 575.0425899481302 L 1196.5217391304348 519.0425899481302 L 1224.3478260869565 575.0425899481302 L 1224.3478260869565 611.4751506428643 L 1252.1739130434783 555.4751506428643 L 1280 611.4751506428643 L 1280 631.9584574966906 L 1307.8260869565217 575.9584574966906 L 1335.6521739130435 631.9584574966906 L 1280 720" fill="#38BDF8" fill-opacity="0.8" />
  </g>
  <g opacity="0.22" fill="rgba(255,255,255,0.32)">
    <circle cx="230.39999999999998" cy="172.79999999999998" r="140" />
    <circle cx="947.2" cy="129.6" r="110" />
    <circle cx="1100.8" cy="259.2" r="180" />
  </g>
</svg>